<svg id="Слой_1" data-name="Слой 1" xmlns="http://www.w3.org/2000/svg" width="92.27mm" height="16.52mm" viewBox="0 0 261.56 46.82"><defs><style>.cls-1{fill:#ffb700;}.cls-2{fill:#ff9200;}.cls-3{fill:#ff3602;}.cls-4{fill:#002a61;}.cls-5{fill:#7f7f80;}.cls-6{fill:#fff;}</style></defs><title>logo_C_ads</title><path class="cls-1" d="M352.67,167v0a23.33,23.33,0,1,0,24,24.58h0V167h-24Z" transform="translate(-330 -167)"/><path class="cls-2" d="M367.5,173a44.45,44.45,0,0,0-37.31,20.26,23.33,23.33,0,0,0,46.44-1.67h0V173.95A44.67,44.67,0,0,0,367.5,173Z" transform="translate(-330 -167)"/><path class="cls-3" d="M374.5,183.67A44.47,44.47,0,0,0,336,205.92a23.33,23.33,0,0,0,40.66-14.32h0v-7.87C375.95,183.69,375.23,183.67,374.5,183.67Z" transform="translate(-330 -167)"/><path class="cls-4" d="M402.9,173.15a5.28,5.28,0,0,0-4-1.9c-2.83.07-4.38,2.35-4.38,4.9s1.57,4.83,4.38,4.83a5.43,5.43,0,0,0,4.26-2.21l2.69,2.24c-2.07,2.52-4.23,3.76-6.95,3.76-5.57,0-8.56-4.16-8.56-8.61s3-8.68,8.56-8.68a7.94,7.94,0,0,1,6.57,3.31Z" transform="translate(-330 -167)"/><path class="cls-4" d="M413,184.71a6.08,6.08,0,0,1-6.45-6.3,6.46,6.46,0,0,1,12.92,0A6.15,6.15,0,0,1,413,184.71Zm0-3.45a2.89,2.89,0,1,0-2.45-2.85A2.55,2.55,0,0,0,413,181.26Z" transform="translate(-330 -167)"/><path class="cls-4" d="M429.92,180.58c0,3.07-2.85,4.07-4.85,4.07a5.55,5.55,0,0,1-4.78-2.31l1.76-2.28a4.34,4.34,0,0,0,2.78,1.28c0.74,0,1.09-.21,1.12-0.57s-0.24-.59-1-0.69c-2-.24-4.26-1.55-4.28-4,0-2.64,2.38-3.93,4.71-3.93a5.28,5.28,0,0,1,4.09,1.67l-1.83,2.31a3.72,3.72,0,0,0-2.17-.74,0.66,0.66,0,1,0,0,1.24C427.54,176.86,429.92,178,429.92,180.58Z" transform="translate(-330 -167)"/><path class="cls-4" d="M440.76,173.63c1.21-1.55,3.83-1.74,5.61-.88a4.63,4.63,0,0,1,2.59,4.5v7.18h-3.85V177.2a1.4,1.4,0,0,0-1.43-1.59,1.37,1.37,0,0,0-1.33,1.59v7.23h-3.78v-7.16a1.56,1.56,0,0,0-1.38-1.69,2.07,2.07,0,0,0-1.5.55v8.3h-3.9V172.37H435l0.33,1.31C436.32,171.77,439.81,171.8,440.76,173.63Z" transform="translate(-330 -167)"/><path class="cls-4" d="M457.23,184.71a6.08,6.08,0,0,1-6.45-6.3,6.46,6.46,0,0,1,12.92,0A6.15,6.15,0,0,1,457.23,184.71Zm0-3.45a2.89,2.89,0,1,0-2.45-2.85A2.55,2.55,0,0,0,457.23,181.26Z" transform="translate(-330 -167)"/><path class="cls-4" d="M472,184.48a4.08,4.08,0,0,1-2.43-.74v5.19h-4V172.37h3.09l0.31,1.31a3.17,3.17,0,0,1,2.93-1.4c3.14,0,5.23,2.52,5.23,6.07C477.16,181.5,475.28,184.48,472,184.48Zm-2.43-3.57a2.78,2.78,0,0,0,1.43.31c1.33,0,2.16-1,2.16-2.76s-0.88-2.81-2.4-2.81a2,2,0,0,0-1.19.52v4.73Z" transform="translate(-330 -167)"/><path class="cls-4" d="M485,184.71a6.08,6.08,0,0,1-6.45-6.3,6.46,6.46,0,0,1,12.92,0A6.15,6.15,0,0,1,485,184.71Zm0-3.45a2.89,2.89,0,1,0-2.45-2.85A2.55,2.55,0,0,0,485,181.26Z" transform="translate(-330 -167)"/><path class="cls-4" d="M498.76,184.38a9.08,9.08,0,0,1-1.59.17c-2.28,0-3.95-1.19-3.95-4.14V167.78h4v12.63c0,0.64.19,1.28,1.55,1.14v2.83Z" transform="translate(-330 -167)"/><path class="cls-4" d="M504.28,172.42v12h-4v-12h4Zm-4-1v-3.69h3.95v3.69H500.3Z" transform="translate(-330 -167)"/><path class="cls-4" d="M512.94,184.38a11.72,11.72,0,0,1-1.52.14c-2.4,0-4.47-1.28-4.38-4.21v-4.92h-1.59v-3H507v-2.83l3.9-.38v3.21h2v3h-2v4.9c0,1.12.74,1.33,2,1.19v2.9Z" transform="translate(-330 -167)"/><path class="cls-4" d="M522.09,184.43l-0.4-1.21a3.43,3.43,0,0,1-2.9,1.38c-3,0-4.52-2-4.52-4.12,0-2.52,2.35-3.81,4.69-3.85a5.47,5.47,0,0,1,2.33.38v-0.38c0-.88-0.83-1.36-2.17-1.36a5.82,5.82,0,0,0-3,.81L515,173.87a7.6,7.6,0,0,1,4.9-1.74c2.78,0,5.42,1,5.42,4.59v7.71h-3.21Zm-2.57-3a2.77,2.77,0,0,0,1.83-.57v-1.31a4.59,4.59,0,0,0-1.76-.31C517.76,179.22,517.67,181.43,519.52,181.41Z" transform="translate(-330 -167)"/><path class="cls-4" d="M531.08,172.37l0.26,1.31c0.83-1.45,2.57-1.59,4.12-1.26a5.16,5.16,0,0,1,4.07,5v7h-4v-7c0-2.14-2.36-2.59-3.78-1.5v8.49h-4V172.37h3.31Z" transform="translate(-330 -167)"/><path class="cls-4" d="M556.61,180.36h-5.3L550,184.43h-4.52l5.69-16.82h5.52l5.76,16.82h-4.54Zm-2.71-9.71L553.47,173l-1,3.59h3.07l-1-3.59-0.43-2.33H553.9Z" transform="translate(-330 -167)"/><path class="cls-4" d="M578.09,176.06a8.08,8.08,0,0,1-8.49,8.37h-5.71V167.71h5.69A8,8,0,0,1,578.09,176.06Zm-4.23.07c0-2.31-1.43-4.73-4.26-4.81h-1.5v9.47h1.47C572.45,180.79,573.85,178.39,573.85,176.13Z" transform="translate(-330 -167)"/><path class="cls-4" d="M582.47,179.12a3.67,3.67,0,0,0,3.21,1.83,1.52,1.52,0,0,0,1.67-1.38c0.07-1.21-1.14-1.71-2.12-2h0c-1.76-.45-5.11-1.62-5.07-5.14s2.95-4.92,5.64-4.92a5.92,5.92,0,0,1,5.26,3.16l-2.76,1.74A2.77,2.77,0,0,0,586,171.2a1.39,1.39,0,0,0-1.64,1.26c0,1,1.14,1.28,1.93,1.5,2.62,0.69,5.42,2,5.28,5.83-0.17,3.4-3.16,4.9-5.95,4.9a6.62,6.62,0,0,1-5.88-3.57Z" transform="translate(-330 -167)"/><path class="cls-5" d="M390.41,210.48l4.18-13.35h1.66l4.18,13.35h-1.27l-1.34-4.38h-4.88l-1.34,4.38h-1.2Zm2.86-5.45h4.23l-2.1-7Z" transform="translate(-330 -167)"/><path class="cls-5" d="M402.71,210.48V197.13H406a6.28,6.28,0,0,1,4.71,1.63,6.73,6.73,0,0,1,1.58,4.86,7.32,7.32,0,0,1-1.6,5.12,6,6,0,0,1-4.69,1.75h-3.25Zm1.24-1.07h1.87a5,5,0,0,0,3.88-1.36,6,6,0,0,0,1.26-4.2,6.4,6.4,0,0,0-1.18-4.33,5,5,0,0,0-3.9-1.31h-1.92v11.21Z" transform="translate(-330 -167)"/><path class="cls-5" d="M417.38,210.48l-4.46-13.35h1.27l3.76,11.59,3.77-11.59H423l-4.45,13.35h-1.15Z" transform="translate(-330 -167)"/><path class="cls-5" d="M432.73,209.41v1.07h-7.94V197.13h7.66v1.07H426v4.68h4.65V204H426v5.45h6.7Z" transform="translate(-330 -167)"/><path class="cls-5" d="M438.81,197.13a5.87,5.87,0,0,1,3.58.91,3.2,3.2,0,0,1,1.2,2.72,3.55,3.55,0,0,1-.67,2.23,3.7,3.7,0,0,1-2,1.25l3.21,6.25h-1.4l-3.11-6.07h-3.3v6.07H435.1V197.13h3.71ZM439,198.2h-2.65v5.17h3a3.19,3.19,0,0,0,2.18-.67,2.42,2.42,0,0,0,.76-1.92,2.3,2.3,0,0,0-.82-1.94A4.07,4.07,0,0,0,439,198.2Z" transform="translate(-330 -167)"/><path class="cls-5" d="M449.3,210.48V198.2h-4v-1.07h9.16v1.07h-4v12.28H449.3Z" transform="translate(-330 -167)"/><path class="cls-5" d="M456.86,210.48V197.13h1.24v13.35h-1.24Z" transform="translate(-330 -167)"/><path class="cls-5" d="M460.82,207.29l1.07-.44a4.85,4.85,0,0,0,1.39,2.11,3.19,3.19,0,0,0,2.07.68,2.88,2.88,0,0,0,2-.71,2.44,2.44,0,0,0,.77-1.88,2.3,2.3,0,0,0-.51-1.53,4.42,4.42,0,0,0-1.72-1.1q-0.66-.26-1.75-0.63a9.38,9.38,0,0,1-1.39-.55,3.93,3.93,0,0,1-1.37-1.19,2.83,2.83,0,0,1-.41-1.56,3.4,3.4,0,0,1,1-2.61,4,4,0,0,1,2.81-1,4.23,4.23,0,0,1,2.62.78,4.82,4.82,0,0,1,1.58,2.4l-1,.33a4.21,4.21,0,0,0-1.28-1.84,3.08,3.08,0,0,0-1.93-.6,2.55,2.55,0,0,0-1.8.64,2.18,2.18,0,0,0-.69,1.67,2,2,0,0,0,.45,1.31,3.14,3.14,0,0,0,1.39.87l1,0.37a12.7,12.7,0,0,1,2.54,1.06,4,4,0,0,1,1.32,1.3,3.28,3.28,0,0,1,.41,1.67,3.64,3.64,0,0,1-1.11,2.79,4.2,4.2,0,0,1-3,1,4.5,4.5,0,0,1-2.79-.83A5.5,5.5,0,0,1,460.82,207.29Z" transform="translate(-330 -167)"/><path class="cls-5" d="M472.17,210.48V197.13h1.24v13.35h-1.24Z" transform="translate(-330 -167)"/><path class="cls-5" d="M478.38,198.1v12.39h-1.2V197.13h2l6.4,11.27V197.13h1.2v13.35h-1.32Z" transform="translate(-330 -167)"/><path class="cls-5" d="M498.13,209a4.3,4.3,0,0,1-1.58,1.32,4.85,4.85,0,0,1-2.12.44,4.4,4.4,0,0,1-3.78-1.77,10.72,10.72,0,0,1,0-10.28,4.38,4.38,0,0,1,3.76-1.81,4.16,4.16,0,0,1,2.87,1,5.83,5.83,0,0,1,1.59,3l-1.17.24a5,5,0,0,0-1.24-2.38,2.89,2.89,0,0,0-2.07-.77,3.15,3.15,0,0,0-2.79,1.49,7.69,7.69,0,0,0-1,4.24,8.14,8.14,0,0,0,1,4.47,3.71,3.71,0,0,0,5.35.65,3,3,0,0,0,.9-2.25v-1.43h-3.32v-1h4.66v6.37h-1.09V209Z" transform="translate(-330 -167)"/><path class="cls-5" d="M509.28,198.1v12.39h-1.2V197.13h2l6.4,11.27V197.13h1.2v13.35h-1.32Z" transform="translate(-330 -167)"/><path class="cls-5" d="M529.18,209.41v1.07h-7.94V197.13h7.66v1.07h-6.42v4.68h4.65V204h-4.65v5.45h6.7Z" transform="translate(-330 -167)"/><path class="cls-5" d="M534,210.48V198.2h-4v-1.07h9.16v1.07h-4v12.28H534Z" transform="translate(-330 -167)"/><path class="cls-5" d="M550.94,210.48l-3.16-11.31-3.16,11.31h-0.9L540,197.13h1.2l3.05,11,3-11h1.11l3,11,3.07-11h1.21l-3.79,13.35h-0.93Z" transform="translate(-330 -167)"/><path class="cls-5" d="M556.8,203.81a8,8,0,0,1,1.44-5,4.76,4.76,0,0,1,7.58,0,9.53,9.53,0,0,1,0,10,4.76,4.76,0,0,1-7.58,0A8,8,0,0,1,556.8,203.81Zm1.3,0a7.52,7.52,0,0,0,1.06,4.27,3.44,3.44,0,0,0,5.76,0,9.15,9.15,0,0,0,0-8.54,3.45,3.45,0,0,0-5.76,0A7.51,7.51,0,0,0,558.1,203.81Z" transform="translate(-330 -167)"/><path class="cls-5" d="M573.72,197.13a5.87,5.87,0,0,1,3.58.91,3.2,3.2,0,0,1,1.2,2.72,3.55,3.55,0,0,1-.67,2.23,3.7,3.7,0,0,1-2,1.25l3.21,6.25h-1.4l-3.11-6.07h-3.3v6.07H570V197.13h3.71Zm0.17,1.07h-2.65v5.17h3a3.19,3.19,0,0,0,2.18-.67,2.42,2.42,0,0,0,.76-1.92,2.3,2.3,0,0,0-.82-1.94A4.07,4.07,0,0,0,573.89,198.2Z" transform="translate(-330 -167)"/><path class="cls-5" d="M581.64,210.48V197.13h1.24v7.21l6-7.21h1.57l-4.29,5.11,4.81,8.24h-1.39l-4.27-7.25-2.4,2.81v4.44h-1.24Z" transform="translate(-330 -167)"/><path class="cls-6" d="M355.38,190.63a7.58,7.58,0,0,1,6.36,2.93l7.93-6.78c-4.29-5.21-7.78-6.28-12.78-6.28A22.47,22.47,0,0,0,334.52,199a20,20,0,0,0-.26,4.92,23.34,23.34,0,0,0,29,7.74L363.06,206a32.68,32.68,0,0,1-10.54,1.16,6.41,6.41,0,0,1-6.21-6.78C346.31,193.55,350.8,190.63,355.38,190.63Z" transform="translate(-330 -167)"/></svg>